<svg xmlns="http://www.w3.org/2000/svg" viewBox="0 0 240 90"><path fill="#FFF" d="M59.9 47.6l7.6-15.4h3l7.7 15.4h-3.5l-1.6-3.4h-8.6L63 47.6h-3.1zm6.1-6.1h5.9L69 35.2l-3 6.3zM80.9 47.6V32.2h11.5c1.1 0 1.8.2 2.3.7.5.5.7 1.2.7 2.3v3.4c0 1-.2 1.8-.7 2.3-.5.5-1.3.7-2.3.7H84v6h-3.1zm10.2-12.7H84V39h7.1c.5 0 .9-.1 1.1-.3.2-.2.3-.5.3-1v-1.6c0-.4-.1-.8-.3-.9-.2-.2-.6-.3-1.1-.3zM98.6 47.6V32.2h11.5c1.1 0 1.8.2 2.3.7.5.5.7 1.2.7 2.3v3.4c0 1-.2 1.8-.7 2.3-.5.5-1.3.7-2.3.7h-8.5v6h-3zm10.2-12.7h-7.1V39h7.1c.5 0 .9-.1 1.1-.3.2-.2.3-.5.3-1v-1.6c0-.4-.1-.8-.3-.9-.2-.2-.6-.3-1.1-.3zM116.3 47.6V32.2h3.1v12.5h10.1v2.9h-13.2zM132.5 47.6V32.2h3.1v15.4h-3.1zM140.8 47.6V32.2h13.8v2.6h-10.7v3.4h6.2v2.6h-6.2v3.8h10.8v2.9h-13.9zM158.8 47.6V32.2h8.7c2.5 0 4.4.7 5.7 2 1.3 1.3 2 3.2 2 5.6 0 1.4-.3 2.7-.8 3.9-.5 1.1-1.3 2.1-2.2 2.7-.6.4-1.3.7-2.2.9-.9.2-2 .3-3.3.3h-7.9zm3.1-2.9h4.1c2.2 0 3.7-.4 4.6-1.2.9-.8 1.4-2 1.4-3.8 0-1.6-.4-2.8-1.1-3.6-.7-.8-1.9-1.2-3.3-1.2H162v9.8zM185 47.6l7.6-15.4h3l7.7 15.4h-3.5l-1.6-3.4h-8.6l-1.6 3.4h-3zm6.1-6.1h5.9l-2.9-6.3-3 6.3zM206 47.6V32.2h11.5c1.1 0 1.8.2 2.3.7.5.5.7 1.2.7 2.3v3.6c0 1-.2 1.8-.7 2.3-.5.5-1.3.7-2.3.7h-1.8l6.2 5.8h-4.5l-5.4-5.8h-3v5.8h-3zm10.2-12.7h-7.1v4.3h7.1c.5 0 .9-.1 1.1-.3.2-.2.3-.5.3-1V36c0-.4-.1-.8-.3-.9-.2-.1-.6-.2-1.1-.2zM231.1 35v12.6H228V35h-6.2v-2.7h15.5V35h-6.2zM61.5 57.2c-.6 0-.9-.1-1.1-.3-.2-.2-.3-.6-.3-1.2v-.4c0-.3 0-.5.1-.7.1-.2.3-.3.6-.6l1.2-.8c-.2-.2-.3-.3-.4-.5-.1-.2-.1-.3-.1-.5v-.4c0-.4.1-.7.3-.9.2-.2.6-.3 1.1-.3H64c.6 0 .9.1 1.1.3.2.2.3.5.3 1v.4l-1 .2v-.9h-1.9v.5l2.7 2.6 1.3-1.3.8.8-1.3 1.3 1.8 1.7H66l-1-.9-.5.5c-.2.1-.3.3-.4.3-.1.1-.4.1-.7.1h-1.9zm-.3-1.2h2.7l.5-.5-1.7-1.6-1.5 1V56zM80.1 51.8v5.4h-1.3v-5.4h-2.7v-1.2h6.7v1.2h-2.7zM92.1 57.2v-6.6H98v1.1h-4.6v1.5h2.7v1.1h-2.7v1.6H98v1.2h-5.9zM113.1 51.8h-3.6V56h3.6v-1.4l1.3.3v.8c0 .6-.1 1-.3 1.2-.2.2-.6.3-1.1.3h-3.4c-.6 0-.9-.1-1.1-.3-.2-.2-.3-.6-.3-1.2v-3.5c0-.6.1-1 .3-1.2.2-.2.6-.3 1.1-.3h3.4c.6 0 .9.1 1.1.3.2.2.3.6.3 1.2v.6l-1.3.2v-1.2zM124.9 57.2v-6.6h1.3v2.6h4.2v-2.6h1.4v6.6h-1.4v-2.8h-4.2v2.8h-1.3zM142.5 57.2v-6.6h.9l4.1 3.9.4.4c.1.1.2.2.3.4v-.8-3.9h1.2v6.6h-.9l-4.2-4.1-.3-.3c-.1-.1-.1-.2-.2-.3v4.7h-1.3zM159.8 52.1c0-.6.1-1 .3-1.2.2-.2.6-.3 1.1-.3h4.3c.6 0 .9.1 1.1.3.2.2.3.6.3 1.2v3.5c0 .6-.1 1-.3 1.2-.2.2-.6.3-1.1.3h-4.3c-.6 0-.9-.1-1.1-.3-.2-.2-.3-.6-.3-1.2v-3.5zm1.3 3.8h4.4v-4.2h-4.4v4.2zM177.4 57.2v-6.6h1.3V56h4.3v1.2h-5.6zM192.5 52.1c0-.6.1-1 .3-1.2.2-.2.6-.3 1.1-.3h4.3c.6 0 .9.1 1.1.3.2.2.3.6.3 1.2v3.5c0 .6-.1 1-.3 1.2-.2.2-.6.3-1.1.3h-4.3c-.6 0-.9-.1-1.1-.3-.2-.2-.3-.6-.3-1.2v-3.5zm1.3 3.8h4.4v-4.2h-4.4v4.2zM215.5 51.8h-4.2V56h4.2v-1.5h-2.2v-1.1h3.5v2.3c0 .6-.1 1-.3 1.2-.2.2-.6.3-1.1.3h-4c-.6 0-.9-.1-1.1-.3-.2-.2-.3-.6-.3-1.2v-3.5c0-.6.1-1 .3-1.2.2-.2.6-.3 1.1-.3h4c.6 0 .9.1 1.1.3.2.2.3.6.3 1.2v.1l-1.3.3v-.8zM228.8 57.2v-2.9l-3-3.6h1.8l2 2.5 2-2.5h1.6l-3 3.6v3h-1.4z"/><path fill="#EB2227" d="M30.3 21.5h16.3c1.4 0 2.6 1.2 2.6 2.6v29.1L31.8 23.1c-.5-.6-1-1.2-1.5-1.6zM15.3 63.2c-5.7 0-8.1-4.1-5.2-9l13.5-23.3c2.9-5 7.6-5 10.4 0l15.1 26.3v6H15.3zM17.5 23.1L2.6 48.8V24.1c0-1.4 1.2-2.6 2.6-2.6H19c-.6.4-1.1 1-1.5 1.6z"/><path fill="#EB2227" d="M7.6 64.7h41.5v.7c0 1.4-1.2 2.6-2.6 2.6H5.3c-1.4 0-2.6-1.2-2.6-2.6v-3.1c1.3 1.4 3 2.4 4.9 2.4z"/></svg>